<?xml version="1.0" encoding="UTF-8"?>
<svg xmlns="http://www.w3.org/2000/svg" width="211" height="48" viewBox="0 0 211 48" fill="none">
  <g clip-path="url(#clip0_989_4501)">
    <path d="M54.5296 3.36265L39.7378 28.9402C39.3041 29.6843 38.5478 30.0599 37.788 30.0599C37.0281 30.0599 36.279 29.6843 35.8454 28.9402C35.4475 28.2462 35.4475 27.3948 35.8454 26.6973L39.5084 20.3619C39.9098 19.6679 39.9098 18.8129 39.5084 18.1189C38.6446 16.6236 36.4833 16.6236 35.616 18.1189L34.5443 19.9684C34.1106 20.7125 33.3544 21.0881 32.5945 21.0881C31.8347 21.0881 31.082 20.7125 30.6519 19.9684C30.2541 19.2744 30.2541 18.423 30.6519 17.7254L38.7055 3.80623C39.1213 3.0872 39.874 2.68654 40.6481 2.68654C41.0317 2.68654 41.4187 2.78313 41.77 2.99061C42.8488 3.6059 43.2144 4.97958 42.5943 6.05277L40.7987 9.15069C40.3973 9.84469 40.3973 10.6997 40.7987 11.3937C41.6625 12.8854 43.8237 12.8854 44.6875 11.3937L50.6301 1.11969C51.0458 0.400656 51.8057 0 52.5798 0C52.9633 0 53.3504 0.0965867 53.7017 0.304069C54.7734 0.919362 55.1461 2.29304 54.5225 3.36622L54.5296 3.36265Z" fill="#FF2746"></path>
    <path d="M29.365 44.6371L4.19339 1.12306C3.57333 0.0498701 2.19701 -0.31859 1.12176 0.30028C0.0500937 0.922727 -0.319076 2.29283 0.300985 3.36601L25.4726 46.8801C26.3364 48.3754 28.4976 48.3754 29.365 46.8801C29.7664 46.1861 29.7664 45.3311 29.365 44.6371Z" fill="#FF2746"></path>
    <path d="M34.5514 35.6675L16.1252 3.81179C15.5051 2.73861 14.1324 2.37372 13.0571 2.99259C11.9819 3.61146 11.6163 4.98156 12.2363 6.05475L30.6661 37.9105C31.5299 39.4058 33.6912 39.4058 34.5585 37.9105C34.96 37.2165 34.96 36.3615 34.5585 35.6675H34.5514Z" fill="#FF2746"></path>
    <path d="M74.4432 38.6681C74.6654 38.915 74.8267 39.1833 74.9343 39.473C75.0382 39.7664 75.0919 40.1062 75.0919 40.4926C75.0919 41.4155 74.7479 42.1775 74.0669 42.7749C73.3823 43.3759 72.5329 43.6728 71.5185 43.6728C71.0526 43.6728 70.5831 43.6012 70.1171 43.4546C69.6512 43.3079 69.2462 43.1326 68.9057 42.9287L68.5867 43.4653H67.9953L67.8914 39.8844H68.4899C68.6118 40.328 68.7587 40.7251 68.92 41.0828C69.0849 41.4405 69.3035 41.7697 69.5723 42.0809C69.8268 42.3706 70.1279 42.6032 70.4684 42.7713C70.8089 42.943 71.2067 43.0289 71.6619 43.0289C72.0024 43.0289 72.2963 42.9824 72.5508 42.8965C72.8053 42.8071 73.0095 42.6819 73.1673 42.5209C73.325 42.3599 73.4396 42.1667 73.5185 41.9485C73.5938 41.7303 73.6332 41.4763 73.6332 41.1937C73.6332 40.7752 73.5149 40.3852 73.2784 40.0239C73.0418 39.6626 72.6906 39.3872 72.221 39.2012C71.902 39.0724 71.5365 38.9329 71.1207 38.779C70.7085 38.6252 70.3501 38.4785 70.049 38.3426C69.4576 38.0779 68.9989 37.7309 68.6727 37.3016C68.3465 36.8723 68.1817 36.3107 68.1817 35.6167C68.1817 35.2196 68.2641 34.8476 68.4254 34.5042C68.5867 34.1608 68.8197 33.8531 69.1207 33.5848C69.4075 33.3308 69.7444 33.1305 70.1315 32.9838C70.5186 32.8372 70.9272 32.7656 71.3501 32.7656C71.8304 32.7656 72.264 32.8407 72.644 32.9874C73.0239 33.1341 73.3751 33.3058 73.687 33.5025L73.988 33.0017H74.5794L74.6368 36.4717H74.0382C73.9307 36.0746 73.8088 35.6918 73.6726 35.3305C73.5364 34.9657 73.3608 34.6365 73.1457 34.3432C72.9343 34.057 72.6762 33.8317 72.3716 33.6635C72.0669 33.4954 71.6906 33.4095 71.2497 33.4095C70.7802 33.4095 70.3824 33.5598 70.0526 33.8603C69.7229 34.1608 69.558 34.5257 69.558 34.9585C69.558 35.3914 69.6619 35.7849 69.877 36.0818C70.092 36.3787 70.3967 36.6219 70.8017 36.8151C71.1601 36.9868 71.515 37.1371 71.859 37.2623C72.2031 37.3875 72.54 37.5198 72.8662 37.6629C73.1601 37.7917 73.4468 37.9348 73.7192 38.0994C73.9916 38.2603 74.2282 38.4499 74.4325 38.6681H74.4432Z" fill="#FF2746"></path>
    <path d="M82.6797 41.7549C82.375 42.3344 81.9665 42.7959 81.4539 43.1393C80.9414 43.4827 80.3536 43.6544 79.6905 43.6544C79.1063 43.6544 78.5902 43.5507 78.1529 43.3432C77.7121 43.1357 77.35 42.8567 77.0633 42.5025C76.7766 42.1484 76.5651 41.737 76.4253 41.2648C76.2855 40.7926 76.2139 40.2953 76.2139 39.7695C76.2139 39.2973 76.2891 38.8358 76.4397 38.3815C76.5902 37.9272 76.8088 37.5194 77.0992 37.1545C77.3787 36.8075 77.7264 36.5249 78.1422 36.3102C78.5579 36.0956 79.0239 35.9883 79.54 35.9883C80.0561 35.9883 80.5256 36.0706 80.9055 36.2387C81.2855 36.4068 81.5901 36.6358 81.8267 36.9255C82.0525 37.201 82.2209 37.5229 82.332 37.8986C82.4432 38.2706 82.4969 38.6784 82.4969 39.1148V39.6013H77.6762C77.6762 40.0807 77.7228 40.5135 77.8124 40.8999C77.902 41.2898 78.0454 41.6297 78.2425 41.9266C78.4361 42.2128 78.6869 42.4381 78.9952 42.6027C79.3034 42.7672 79.6762 42.8495 80.1027 42.8495C80.5292 42.8495 80.9163 42.7458 81.2353 42.5419C81.5543 42.338 81.8589 41.9695 82.1528 41.4365L82.669 41.7549H82.6797ZM81.0489 38.9825C81.0489 38.707 81.0238 38.4137 80.9772 38.1025C80.9306 37.7912 80.8554 37.5265 80.7514 37.3155C80.6403 37.0901 80.4826 36.9076 80.2855 36.7646C80.0884 36.6215 79.8339 36.5535 79.5256 36.5535C79.0095 36.5535 78.5794 36.7681 78.2389 37.1974C77.8948 37.6267 77.712 38.2205 77.6798 38.986H81.0453L81.0489 38.9825Z" fill="#FF2746"></path>
    <path d="M89.0916 37.1321C89.0916 37.3825 89.0307 37.6043 88.9088 37.7974C88.787 37.9906 88.597 38.0872 88.3389 38.0872C88.063 38.0872 87.8551 38.0157 87.7081 37.8726C87.5612 37.7295 87.4895 37.5721 87.4895 37.4004C87.4895 37.293 87.4967 37.1929 87.5146 37.107C87.5325 37.0212 87.5468 36.9317 87.5612 36.8423C87.3282 36.8423 87.0594 36.9353 86.7476 37.1213C86.4393 37.3074 86.1741 37.5721 85.959 37.9155V42.1438C85.959 42.3156 85.9913 42.4551 86.0594 42.566C86.1275 42.6733 86.2314 42.7556 86.3712 42.8092C86.4931 42.8593 86.6544 42.8951 86.8479 42.9201C87.0415 42.9452 87.2099 42.963 87.3533 42.9702V43.4567H83.5146V42.9702C83.6258 42.9595 83.744 42.9523 83.8659 42.9416C83.9878 42.9308 84.0917 42.913 84.1813 42.8843C84.3175 42.8414 84.4214 42.7627 84.486 42.6518C84.5505 42.5409 84.5863 42.3978 84.5863 42.2225V37.7402C84.5863 37.5864 84.5505 37.4397 84.4788 37.2895C84.4071 37.1428 84.3067 37.0247 84.1813 36.9353C84.0881 36.8781 83.977 36.8316 83.848 36.8065C83.7189 36.7815 83.5827 36.76 83.4358 36.7529V36.2664L85.8551 36.1054L85.959 36.2091V37.2322H85.9949C86.2995 36.8352 86.64 36.5311 87.0128 36.3272C87.3855 36.1197 87.7296 36.0195 88.0379 36.0195C88.3461 36.0195 88.6006 36.1197 88.7941 36.32C88.9877 36.5203 89.0844 36.7922 89.0844 37.1321H89.0916Z" fill="#FF2746"></path>
    <path d="M93.2421 43.4622H89.7296V42.9757C89.8443 42.965 89.959 42.9578 90.0809 42.9471C90.2027 42.9364 90.3067 42.9185 90.3927 42.8899C90.5289 42.8469 90.6328 42.7682 90.6974 42.6573C90.7655 42.5464 90.7977 42.4034 90.7977 42.2281V37.7457C90.7977 37.5883 90.7619 37.4452 90.6902 37.3165C90.6185 37.1877 90.5181 37.0768 90.3927 36.9874C90.2995 36.9301 90.1633 36.88 89.9877 36.8371C89.8121 36.7942 89.6472 36.7691 89.5002 36.7584V36.2719L92.0701 36.1109L92.174 36.2147V42.1386C92.174 42.3103 92.2063 42.4534 92.2744 42.5679C92.3389 42.6788 92.4428 42.7647 92.5862 42.8183C92.6937 42.8613 92.7977 42.897 92.9016 42.9256C93.0056 42.9543 93.1203 42.9721 93.2457 42.9793V43.4658L93.2421 43.4622ZM92.3174 33.2455C92.3174 33.5245 92.2242 33.7714 92.0414 33.9789C91.8586 34.1863 91.6292 34.2901 91.3568 34.2901C91.1059 34.2901 90.8873 34.1899 90.7045 33.9932C90.5181 33.7928 90.4285 33.5675 90.4285 33.3135C90.4285 33.0416 90.5217 32.8091 90.7045 32.6052C90.8873 32.4049 91.1059 32.3047 91.3568 32.3047C91.6364 32.3047 91.8658 32.3977 92.0486 32.5873C92.2278 32.7769 92.3174 32.9951 92.3174 33.2455Z" fill="#FF2746"></path>
    <path d="M101.242 39.7552C101.242 40.2667 101.16 40.7675 100.998 41.2612C100.837 41.7549 100.604 42.1734 100.303 42.5168C99.9625 42.9103 99.5682 43.2001 99.1202 43.3933C98.6722 43.5829 98.1704 43.6794 97.6113 43.6794C97.1489 43.6794 96.708 43.5936 96.2887 43.4183C95.8693 43.243 95.5002 42.989 95.174 42.6563C94.855 42.3272 94.597 41.9266 94.4106 41.4508C94.2206 40.9786 94.1274 40.4456 94.1274 39.8553C94.1274 38.7213 94.4572 37.7912 95.1203 37.0722C95.7833 36.3496 96.6507 35.9883 97.726 35.9883C98.8012 35.9883 99.5861 36.3317 100.249 37.015C100.912 37.7018 101.242 38.614 101.242 39.7516V39.7552ZM99.7152 39.773C99.7152 39.4046 99.6793 39.0147 99.6041 38.6069C99.5288 38.1955 99.4177 37.8485 99.2707 37.5659C99.113 37.2618 98.9051 37.0185 98.6507 36.8325C98.3926 36.6465 98.0808 36.5571 97.7116 36.5571C97.3424 36.5571 97.0091 36.6501 96.7403 36.8361C96.4715 37.0221 96.2529 37.2797 96.0844 37.6016C95.9267 37.9021 95.8156 38.242 95.7511 38.6247C95.6866 39.0075 95.6543 39.3795 95.6543 39.7373C95.6543 40.2095 95.6937 40.6459 95.769 41.0466C95.8443 41.4472 95.9661 41.8049 96.1346 42.1197C96.303 42.4345 96.5145 42.6814 96.7654 42.8602C97.0199 43.0391 97.3353 43.1285 97.708 43.1285C98.3245 43.1285 98.812 42.8316 99.1704 42.2378C99.5288 41.644 99.7116 40.8248 99.7116 39.7766L99.7152 39.773Z" fill="#FF2746"></path>
    <path d="M110.091 43.328L107.715 43.489L107.604 43.3852V42.4623H107.561C107.443 42.5839 107.31 42.7163 107.163 42.8558C107.016 42.9953 106.848 43.1205 106.654 43.235C106.432 43.3674 106.22 43.4675 106.013 43.5355C105.805 43.6035 105.514 43.6392 105.134 43.6392C104.489 43.6392 104.002 43.4282 103.665 43.0096C103.328 42.5911 103.16 41.9794 103.16 41.1816V37.7081C103.16 37.5328 103.127 37.3826 103.059 37.2645C102.991 37.1465 102.894 37.0391 102.765 36.9533C102.676 36.896 102.565 36.8531 102.432 36.8245C102.299 36.7959 102.156 36.778 102.009 36.7708V36.2843L104.436 36.1055L104.547 36.2092V41.2568C104.547 41.7826 104.665 42.1761 104.901 42.4444C105.138 42.7091 105.421 42.8415 105.751 42.8415C106.023 42.8415 106.263 42.7986 106.475 42.7163C106.686 42.634 106.862 42.5338 107.005 42.423C107.138 42.3192 107.256 42.2119 107.357 42.0938C107.457 41.9794 107.536 41.8721 107.59 41.7755V37.6616C107.59 37.5006 107.554 37.3575 107.486 37.2323C107.418 37.1071 107.321 36.9998 107.199 36.9139C107.109 36.8531 106.977 36.8173 106.805 36.8066C106.633 36.7959 106.435 36.7816 106.217 36.7744V36.2879L108.866 36.109L108.977 36.2128V41.9758C108.977 42.1439 109.013 42.2834 109.081 42.4015C109.149 42.5195 109.245 42.6197 109.367 42.702C109.457 42.7556 109.561 42.7914 109.686 42.8093C109.812 42.8272 109.944 42.8379 110.091 42.8415V43.328Z" fill="#FF2746"></path>
    <path d="M115.79 39.9061C115.991 40.0814 116.149 40.2853 116.256 40.5178C116.364 40.7467 116.417 41.0293 116.417 41.3656C116.417 42.0381 116.167 42.589 115.661 43.0147C115.156 43.4404 114.504 43.6551 113.701 43.6551C113.278 43.6551 112.887 43.5799 112.532 43.4261C112.177 43.2723 111.919 43.1328 111.769 43.0076L111.622 43.4869H111.07L110.995 40.9614H111.504C111.543 41.1545 111.625 41.3799 111.754 41.6339C111.884 41.8915 112.038 42.1204 112.22 42.3279C112.414 42.5461 112.643 42.7285 112.909 42.8752C113.177 43.0219 113.478 43.097 113.812 43.097C114.285 43.097 114.647 42.9897 114.905 42.775C115.159 42.5604 115.288 42.2528 115.288 41.8521C115.288 41.6446 115.249 41.4693 115.167 41.3191C115.084 41.1688 114.966 41.0365 114.808 40.9256C114.647 40.8147 114.446 40.711 114.21 40.6215C113.973 40.5321 113.711 40.4427 113.421 40.3532C113.188 40.2853 112.934 40.1922 112.651 40.0706C112.367 39.949 112.124 39.8095 111.923 39.6485C111.708 39.4768 111.529 39.2657 111.392 39.0153C111.256 38.7649 111.185 38.4716 111.185 38.1317C111.185 37.5379 111.407 37.0335 111.848 36.6221C112.292 36.2107 112.883 36.0032 113.625 36.0032C113.912 36.0032 114.202 36.039 114.5 36.1141C114.797 36.1893 115.041 36.2751 115.228 36.3789L115.396 35.9961H115.926L116.038 38.3321H115.529C115.425 37.8098 115.202 37.3841 114.862 37.055C114.518 36.7259 114.102 36.5613 113.611 36.5613C113.206 36.5613 112.891 36.6615 112.658 36.8654C112.428 37.0693 112.31 37.3125 112.31 37.5987C112.31 37.8205 112.346 38.0029 112.425 38.1496C112.504 38.2963 112.615 38.4215 112.769 38.5252C112.916 38.6254 113.102 38.7148 113.324 38.8007C113.55 38.8865 113.826 38.9831 114.156 39.0904C114.482 39.1942 114.787 39.3122 115.073 39.4517C115.36 39.5877 115.6 39.7415 115.787 39.9096L115.79 39.9061Z" fill="#FF2746"></path>
    <path d="M120.926 43.4591H117.374V42.9726C117.485 42.9618 117.607 42.9511 117.736 42.9404C117.865 42.9296 117.969 42.9082 118.055 42.8831C118.192 42.8402 118.296 42.7615 118.364 42.6506C118.432 42.5397 118.468 42.3966 118.468 42.2178V33.8004C118.468 33.6215 118.428 33.457 118.353 33.3032C118.278 33.1493 118.177 33.0277 118.055 32.9383C117.966 32.881 117.804 32.8274 117.568 32.7773C117.331 32.7272 117.141 32.6986 116.998 32.6879V32.2157L119.736 32.0547L119.84 32.1656V42.1319C119.84 42.3036 119.873 42.4431 119.937 42.554C120.002 42.6649 120.106 42.7508 120.245 42.808C120.353 42.8581 120.46 42.8939 120.568 42.9189C120.672 42.9439 120.794 42.9618 120.926 42.969V43.4555V43.4591Z" fill="#FF2746"></path>
    <path d="M121.288 45.8315C121.288 45.5847 121.356 45.3844 121.493 45.2305C121.629 45.0767 121.797 44.998 121.998 44.998C122.156 44.998 122.292 45.0266 122.403 45.0839C122.518 45.1411 122.618 45.2162 122.704 45.3092C122.779 45.3808 122.858 45.481 122.941 45.6097C123.023 45.7385 123.091 45.8423 123.141 45.9245C123.389 45.7922 123.683 45.4452 124.023 44.8871C124.363 44.3291 124.611 43.839 124.765 43.4169C124.299 42.2542 123.876 41.2133 123.496 40.2939C123.116 39.3745 122.722 38.4266 122.31 37.4428C122.217 37.2174 122.059 37.0421 121.837 36.9169C121.614 36.7917 121.392 36.713 121.174 36.6773V36.1907H124.496V36.7059C124.349 36.7095 124.17 36.7417 123.966 36.7989C123.758 36.8561 123.657 36.9205 123.657 36.9921C123.657 37.0207 123.668 37.0708 123.69 37.1387C123.711 37.2067 123.736 37.2782 123.769 37.3534C123.955 37.8399 124.238 38.541 124.622 39.4532C125.005 40.369 125.303 41.1024 125.51 41.6497C125.733 41.1238 125.962 40.5801 126.202 40.0184C126.442 39.4568 126.708 38.7914 127.005 38.0259C127.041 37.9329 127.087 37.8041 127.152 37.6395C127.217 37.475 127.249 37.3355 127.249 37.2174C127.249 37.0886 127.138 36.9706 126.912 36.8597C126.686 36.7488 126.475 36.6808 126.274 36.6558V36.1836H128.976V36.6415C128.829 36.6665 128.632 36.7488 128.392 36.8955C128.152 37.0421 127.973 37.246 127.854 37.5108C127.27 38.8666 126.747 40.1007 126.292 41.2168C125.837 42.3329 125.493 43.1521 125.256 43.678C124.948 44.3648 124.668 44.9014 124.424 45.2878C124.181 45.6741 123.944 45.9746 123.711 46.1964C123.485 46.4039 123.277 46.5434 123.095 46.6114C122.912 46.6793 122.718 46.7187 122.521 46.7187C122.138 46.7187 121.837 46.6257 121.618 46.4468C121.399 46.268 121.288 46.0569 121.288 45.8208V45.8315Z" fill="#FF2746"></path>
    <path d="M137.729 43.7092C137.105 43.7092 136.507 43.5876 135.933 43.3407C135.36 43.0939 134.851 42.7397 134.41 42.2783C133.973 41.8168 133.625 41.2516 133.363 40.5862C133.102 39.9208 132.973 39.1696 132.973 38.3325C132.973 37.4955 133.102 36.7406 133.356 36.0574C133.611 35.3741 133.965 34.791 134.417 34.2974C134.865 33.8108 135.392 33.4352 136.001 33.1705C136.611 32.9058 137.263 32.7734 137.955 32.7734C138.471 32.7734 138.937 32.8378 139.356 32.9666C139.775 33.0954 140.173 33.2743 140.55 33.5032L140.851 33.0024H141.442L141.51 36.7299H140.904C140.826 36.365 140.707 35.9715 140.55 35.5458C140.392 35.1201 140.209 34.7624 139.998 34.4655C139.761 34.1328 139.482 33.8717 139.159 33.6821C138.833 33.4925 138.464 33.3995 138.044 33.3995C137.568 33.3995 137.123 33.5032 136.715 33.7178C136.306 33.9325 135.948 34.2401 135.65 34.6551C135.363 35.0522 135.141 35.5601 134.98 36.1754C134.819 36.7907 134.736 37.474 134.736 38.2324C134.736 38.9013 134.822 39.513 134.991 40.0711C135.159 40.6292 135.403 41.1192 135.718 41.5414C136.034 41.9599 136.406 42.2854 136.836 42.5215C137.266 42.7576 137.747 42.8757 138.277 42.8757C138.675 42.8757 139.041 42.8149 139.378 42.6861C139.711 42.5609 140.001 42.3963 140.249 42.1888C140.496 41.9742 140.711 41.7274 140.897 41.4519C141.084 41.1765 141.238 40.876 141.356 40.554L141.908 40.8187C141.485 41.8562 140.926 42.5967 140.227 43.0402C139.528 43.4838 138.697 43.7056 137.736 43.7056L137.729 43.7092Z" fill="#FF2746"></path>
    <path d="M148.205 37.1321C148.205 37.3825 148.144 37.6043 148.023 37.7974C147.901 37.9906 147.711 38.0872 147.453 38.0872C147.177 38.0872 146.969 38.0157 146.822 37.8726C146.675 37.7295 146.603 37.5721 146.603 37.4004C146.603 37.293 146.61 37.1929 146.628 37.107C146.646 37.0212 146.661 36.9317 146.675 36.8423C146.442 36.8423 146.173 36.9353 145.861 37.1213C145.553 37.3074 145.288 37.5721 145.073 37.9155V42.1438C145.073 42.3156 145.105 42.4551 145.173 42.566C145.241 42.6733 145.345 42.7556 145.485 42.8092C145.607 42.8593 145.768 42.8951 145.962 42.9201C146.155 42.9452 146.324 42.963 146.467 42.9702V43.4567H142.628V42.9702C142.74 42.9595 142.858 42.9523 142.98 42.9416C143.102 42.9308 143.205 42.913 143.295 42.8843C143.431 42.8414 143.535 42.7627 143.6 42.6518C143.664 42.5409 143.7 42.3978 143.7 42.2225V37.7402C143.7 37.5864 143.664 37.4397 143.593 37.2895C143.521 37.1428 143.421 37.0247 143.295 36.9353C143.202 36.8781 143.091 36.8316 142.962 36.8065C142.833 36.7815 142.697 36.76 142.55 36.7529V36.2664L144.969 36.1054L145.073 36.2091V37.2322H145.109C145.413 36.8352 145.754 36.5311 146.127 36.3272C146.499 36.1197 146.843 36.0195 147.152 36.0195C147.46 36.0195 147.714 36.1197 147.908 36.32C148.101 36.5203 148.198 36.7922 148.198 37.1321H148.205Z" fill="#FF2746"></path>
    <path d="M155.291 41.7549C154.987 42.3344 154.578 42.7959 154.065 43.1393C153.553 43.4827 152.965 43.6544 152.302 43.6544C151.718 43.6544 151.202 43.5507 150.764 43.3432C150.324 43.1357 149.962 42.8567 149.675 42.5025C149.388 42.1484 149.177 41.737 149.037 41.2648C148.897 40.7926 148.825 40.2953 148.825 39.7695C148.825 39.2973 148.901 38.8358 149.051 38.3815C149.202 37.9272 149.42 37.5194 149.711 37.1545C149.99 36.8075 150.338 36.5249 150.754 36.3102C151.169 36.0956 151.635 35.9883 152.152 35.9883C152.668 35.9883 153.137 36.0706 153.517 36.2387C153.897 36.4068 154.202 36.6358 154.438 36.9255C154.664 37.201 154.833 37.5229 154.944 37.8986C155.055 38.2706 155.108 38.6784 155.108 39.1148V39.6013H150.288C150.288 40.0807 150.334 40.5135 150.424 40.8999C150.514 41.2898 150.657 41.6297 150.854 41.9266C151.048 42.2128 151.299 42.4381 151.607 42.6027C151.915 42.7672 152.288 42.8495 152.714 42.8495C153.141 42.8495 153.528 42.7458 153.847 42.5419C154.166 42.338 154.47 41.9695 154.764 41.4365L155.281 41.7549H155.291ZM153.66 38.9825C153.66 38.707 153.635 38.4137 153.589 38.1025C153.542 37.7912 153.467 37.5265 153.363 37.3155C153.252 37.0901 153.094 36.9076 152.897 36.7646C152.7 36.6215 152.445 36.5535 152.137 36.5535C151.621 36.5535 151.191 36.7681 150.85 37.1974C150.506 37.6267 150.324 38.2205 150.291 38.986H153.657L153.66 38.9825Z" fill="#FF2746"></path>
    <path d="M163.026 43.3292C162.797 43.4115 162.592 43.4794 162.417 43.5331C162.241 43.5868 162.044 43.6118 161.822 43.6118C161.438 43.6118 161.134 43.5224 160.904 43.3435C160.675 43.1646 160.528 42.9035 160.467 42.5601H160.424C160.105 42.9142 159.761 43.1825 159.395 43.3686C159.03 43.5546 158.589 43.6476 158.069 43.6476C157.524 43.6476 157.073 43.4794 156.721 43.1468C156.37 42.8141 156.195 42.3741 156.195 41.8375C156.195 41.5584 156.234 41.308 156.313 41.0862C156.392 40.8644 156.51 40.6677 156.668 40.4888C156.79 40.3422 156.954 40.2098 157.155 40.0953C157.356 39.9809 157.546 39.8879 157.725 39.8199C157.947 39.7376 158.395 39.5838 159.073 39.3548C159.75 39.1295 160.205 38.9506 160.442 38.8254V38.0956C160.442 38.0312 160.427 37.9096 160.402 37.7272C160.374 37.5447 160.316 37.373 160.23 37.212C160.13 37.0296 159.994 36.8722 159.815 36.7363C159.635 36.6003 159.381 36.5324 159.051 36.5324C158.825 36.5324 158.614 36.5681 158.42 36.6468C158.227 36.7255 158.091 36.8042 158.012 36.8865C158.012 36.9867 158.037 37.1298 158.083 37.3194C158.13 37.5125 158.155 37.6878 158.155 37.8488C158.155 38.0205 158.076 38.1779 157.922 38.321C157.768 38.4641 157.553 38.5356 157.277 38.5356C157.03 38.5356 156.85 38.4498 156.736 38.2745C156.621 38.0992 156.564 37.906 156.564 37.6878C156.564 37.4696 156.643 37.2442 156.804 37.0403C156.965 36.8328 157.173 36.6504 157.428 36.4859C157.65 36.3499 157.919 36.2319 158.234 36.1353C158.549 36.0387 158.858 35.9922 159.155 35.9922C159.567 35.9922 159.929 36.0208 160.238 36.078C160.546 36.1353 160.825 36.2569 161.076 36.4429C161.327 36.6254 161.517 36.8722 161.65 37.1834C161.779 37.4946 161.847 37.8953 161.847 38.389C161.847 39.0901 161.84 39.7126 161.825 40.2563C161.811 40.8001 161.804 41.3939 161.804 42.0342C161.804 42.2274 161.836 42.3776 161.904 42.4921C161.972 42.6066 162.073 42.6996 162.209 42.7783C162.284 42.8212 162.399 42.8463 162.56 42.8534C162.721 42.857 162.883 42.8606 163.051 42.8606V43.3328L163.026 43.3292ZM160.449 39.4407C160.03 39.5623 159.664 39.6839 159.349 39.802C159.033 39.92 158.743 40.0667 158.471 40.2456C158.223 40.4137 158.03 40.6105 157.886 40.8394C157.743 41.0684 157.671 41.3402 157.671 41.655C157.671 42.0628 157.779 42.3633 157.994 42.5565C158.209 42.7497 158.481 42.8427 158.807 42.8427C159.159 42.8427 159.463 42.7568 159.732 42.5887C159.997 42.417 160.22 42.2167 160.402 41.9877L160.445 39.4407H160.449Z" fill="#FF2746"></path>
    <path d="M168.244 43.1442C167.925 43.2765 167.621 43.3874 167.338 43.4804C167.054 43.5734 166.703 43.6164 166.291 43.6164C165.682 43.6164 165.252 43.4625 165.004 43.1549C164.757 42.8472 164.632 42.4144 164.632 41.8563V36.934H163.316V36.2257H164.66V33.9648H166.004V36.2257H168.094V36.934H166.019V40.9942C166.019 41.2983 166.029 41.5523 166.051 41.7562C166.072 41.9601 166.126 42.1389 166.209 42.2892C166.287 42.4323 166.406 42.5396 166.563 42.6147C166.721 42.6898 166.933 42.7256 167.198 42.7256C167.32 42.7256 167.502 42.7149 167.739 42.6934C167.976 42.672 168.148 42.6433 168.244 42.6076V43.1442Z" fill="#FF2746"></path>
    <path d="M172.495 43.4622H168.983V42.9757C169.098 42.965 169.212 42.9578 169.334 42.9471C169.456 42.9364 169.56 42.9185 169.646 42.8899C169.782 42.8469 169.886 42.7682 169.951 42.6573C170.019 42.5464 170.051 42.4034 170.051 42.2281V37.7457C170.051 37.5883 170.015 37.4452 169.943 37.3165C169.872 37.1877 169.771 37.0768 169.646 36.9874C169.553 36.9301 169.416 36.88 169.241 36.8371C169.065 36.7942 168.9 36.7691 168.753 36.7584V36.2719L171.323 36.1109L171.427 36.2147V42.1386C171.427 42.3103 171.459 42.4534 171.528 42.5679C171.592 42.6788 171.696 42.7647 171.839 42.8183C171.947 42.8613 172.051 42.897 172.155 42.9256C172.259 42.9543 172.373 42.9721 172.499 42.9793V43.4658L172.495 43.4622ZM171.574 33.2455C171.574 33.5245 171.481 33.7714 171.298 33.9789C171.115 34.1863 170.886 34.2901 170.614 34.2901C170.363 34.2901 170.144 34.1899 169.961 33.9932C169.775 33.7928 169.685 33.5675 169.685 33.3135C169.685 33.0416 169.778 32.8091 169.961 32.6052C170.144 32.4049 170.363 32.3047 170.614 32.3047C170.893 32.3047 171.123 32.3977 171.305 32.5873C171.485 32.7769 171.574 32.9951 171.574 33.2455Z" fill="#FF2746"></path>
    <path d="M180.585 36.65C180.363 36.6893 180.155 36.768 179.954 36.8896C179.753 37.0113 179.585 37.2223 179.441 37.5264C179.151 38.1846 178.85 38.8714 178.542 39.5869C178.234 40.3024 177.911 41.05 177.574 41.837C177.474 42.0624 177.37 42.3307 177.262 42.6383C177.151 42.946 177.051 43.2465 176.958 43.5291H176.381C175.911 42.3736 175.481 41.3219 175.09 40.3739C174.696 39.4224 174.287 38.4493 173.864 37.4513C173.768 37.2259 173.606 37.0506 173.388 36.9254C173.169 36.8002 172.95 36.7215 172.728 36.6857V36.1992H176.097V36.7143C175.95 36.7179 175.764 36.7501 175.542 36.8074C175.32 36.8646 175.209 36.9397 175.209 37.0399C175.209 37.0542 175.219 37.0935 175.244 37.1544C175.269 37.2152 175.295 37.2867 175.32 37.3618C175.52 37.8627 175.803 38.5602 176.173 39.4581C176.542 40.356 176.839 41.0786 177.072 41.6295C177.248 41.2074 177.47 40.6816 177.739 40.0555C178.008 39.4259 178.294 38.7248 178.606 37.9521C178.656 37.8197 178.703 37.6945 178.746 37.5801C178.789 37.4656 178.814 37.3475 178.814 37.2295C178.814 37.1472 178.775 37.0721 178.692 37.0041C178.61 36.9361 178.513 36.8789 178.402 36.8324C178.291 36.7859 178.18 36.7465 178.069 36.7215C177.961 36.6965 177.872 36.6786 177.803 36.6714V36.1992H180.588V36.65H180.585Z" fill="#FF2746"></path>
    <path d="M187.37 41.7549C187.065 42.3344 186.656 42.7959 186.144 43.1393C185.631 43.4827 185.044 43.6544 184.38 43.6544C183.796 43.6544 183.28 43.5507 182.843 43.3432C182.402 43.1357 182.04 42.8567 181.753 42.5025C181.467 42.1484 181.255 41.737 181.115 41.2648C180.975 40.7926 180.904 40.2953 180.904 39.7695C180.904 39.2973 180.979 38.8358 181.13 38.3815C181.28 37.9272 181.499 37.5194 181.789 37.1545C182.069 36.8075 182.416 36.5249 182.832 36.3102C183.248 36.0956 183.714 35.9883 184.23 35.9883C184.746 35.9883 185.216 36.0706 185.595 36.2387C185.975 36.4068 186.28 36.6358 186.517 36.9255C186.742 37.201 186.911 37.5229 187.022 37.8986C187.133 38.2706 187.187 38.6784 187.187 39.1148V39.6013H182.366C182.366 40.0807 182.413 40.5135 182.502 40.8999C182.592 41.2898 182.735 41.6297 182.932 41.9266C183.126 42.2128 183.377 42.4381 183.685 42.6027C183.993 42.7672 184.366 42.8495 184.793 42.8495C185.219 42.8495 185.606 42.7458 185.925 42.5419C186.244 42.338 186.549 41.9695 186.843 41.4365L187.359 41.7549H187.37ZM185.735 38.9825C185.735 38.707 185.71 38.4137 185.664 38.1025C185.617 37.7912 185.542 37.5265 185.438 37.3155C185.327 37.0901 185.169 36.9076 184.972 36.7646C184.775 36.6215 184.52 36.5535 184.212 36.5535C183.696 36.5535 183.266 36.7681 182.925 37.1974C182.581 37.6267 182.398 38.2205 182.366 38.986H185.732L185.735 38.9825Z" fill="#FF2746"></path>
    <path d="M72.9092 24.6091L64.2104 6.14675C64.171 6.06447 64.1423 5.98219 64.1423 5.92853C64.1423 5.40625 65.3538 5.40625 66.5652 5.40625C67.9129 5.40625 69.2749 5.40625 69.4827 5.88561L73.7228 15.8305L77.9485 5.88561C78.1672 5.40625 79.5041 5.40625 80.8661 5.40625C82.0775 5.40625 83.289 5.40625 83.289 5.92853C83.289 5.9965 83.2603 6.06447 83.2352 6.13602L74.5508 24.6091C74.4002 24.8846 74.0275 24.8989 73.7372 24.8989C73.4074 24.8989 73.049 24.8846 72.9128 24.6091H72.9092Z" fill="#080A52"></path>
    <path d="M85.4036 18.6731V5.99523C85.4036 5.43359 86.5863 5.43359 87.7584 5.43359C88.9304 5.43359 90.1275 5.43359 90.1275 6.00954V17.2851C90.1275 19.0022 91.3533 20.0468 93.1705 20.0468C94.8084 20.0468 96.2134 19.1274 96.2134 17.2851V5.99523C96.2134 5.43359 97.4105 5.43359 98.579 5.43359C99.7474 5.43359 100.945 5.43359 100.945 6.00954V18.6731C100.945 22.0393 98.027 24.8547 93.1705 24.8547C88.3139 24.8547 85.4071 21.9141 85.4071 18.6731H85.4036Z" fill="#080A52"></path>
    <path d="M103.69 24.1829V5.96739C103.69 5.74918 103.855 5.58462 104.063 5.58462L116.614 5.57031C117.206 5.57031 117.22 6.69716 117.22 7.83831C117.22 8.97946 117.206 10.1314 116.614 10.1314H108.414V12.7821H115.199C115.761 12.7821 115.776 13.7838 115.776 14.7747C115.776 15.7656 115.761 16.7779 115.199 16.7779H108.414V20.019L116.604 20.0047C117.209 20.0047 117.224 21.1458 117.224 22.2977C117.224 23.4496 117.209 24.5764 116.618 24.5764H104.066C103.858 24.5764 103.694 24.3833 103.694 24.1793L103.69 24.1829Z" fill="#080A52"></path>
    <path d="M125.675 24.1392V5.99523C125.675 5.44433 126.844 5.43359 128.041 5.43359C129.238 5.43359 130.396 5.4479 130.396 5.99523V12.4379H138.654V5.99523C138.654 5.44433 139.836 5.43359 141.008 5.43359C142.18 5.43359 143.374 5.4479 143.374 5.99523V24.1249C143.374 24.6865 142.191 24.7008 141.008 24.7008C139.826 24.7008 138.654 24.6865 138.654 24.1356V16.9918H130.396V24.1213C130.396 24.683 129.227 24.6973 128.041 24.6973C126.854 24.6973 125.675 24.683 125.675 24.1321V24.1392Z" fill="#080A52"></path>
    <path d="M145.721 17.5048C145.721 13.4124 148.488 10.293 152.589 10.293C156.897 10.293 158.836 13.5197 158.836 17.5727C158.836 18.1916 158.822 18.8105 158.409 18.8105H150.302C150.496 20.1019 151.678 20.939 153.069 20.939C154.349 20.939 155.463 20.6385 156.549 19.9767C156.617 19.9373 156.685 19.923 156.757 19.923C157.155 19.923 157.46 20.5812 157.736 21.3253C157.969 21.9156 158.176 22.5201 158.176 22.9458C158.176 23.1783 158.123 23.3572 157.958 23.4395C156.252 24.4554 154.478 24.8561 152.535 24.8561C148.338 24.8561 145.721 21.6544 145.721 17.5084V17.5048ZM152.589 14.0992C151.184 14.0992 150.359 15.1974 150.248 16.2134H154.431C154.402 15.1151 153.99 14.0992 152.589 14.0992Z" fill="#080A52"></path>
    <path d="M161.008 21.0502C161.008 18.4817 163.223 16.9721 166.348 16.3675L168.359 15.9848V15.2979C168.359 14.6647 167.961 14.214 167.094 14.214C166.033 14.214 164.811 14.4751 163.352 15.2443C163.298 15.2729 163.241 15.2836 163.187 15.2836C162.789 15.2836 162.388 14.5431 162.058 13.7454C161.84 13.2088 161.632 12.7008 161.632 12.318C161.632 12.0712 161.714 11.878 161.922 11.7671C163.822 10.7512 165.445 10.2969 167.331 10.2969C170.811 10.2969 172.958 11.7814 172.958 15.6556V24.1589C172.958 24.7098 171.897 24.7098 170.839 24.7098C169.782 24.7098 168.693 24.7098 168.693 24.1589V22.9497C167.893 24.1016 166.764 24.86 164.893 24.86C162.732 24.86 161.012 23.6366 161.012 21.0538L161.008 21.0502ZM168.359 19.5692V18.7035L166.75 19.0326C166.13 19.1292 165.635 19.5406 165.635 20.1451C165.635 20.6674 166.047 21.0395 166.667 21.0395C167.796 21.0395 168.359 20.2274 168.359 19.5692Z" fill="#080A52"></path>
    <path d="M176.316 20.7042V4.45616C176.316 3.89453 177.474 3.89453 178.628 3.89453C179.782 3.89453 180.939 3.89453 180.939 4.45616V19.6882C180.939 20.1569 181.158 20.5003 181.724 20.5003C181.957 20.5003 182.219 20.4717 182.509 20.3894C182.549 20.3751 182.592 20.3751 182.635 20.3751C183.129 20.3751 183.129 21.3624 183.129 22.3676C183.129 23.4372 183.129 24.5247 182.635 24.6213C181.836 24.7859 181.026 24.8538 180.255 24.8538C177.585 24.8538 176.32 22.9722 176.32 20.7042H176.316Z" fill="#080A52"></path>
    <path d="M186.642 19.3879V14.5657H184.621C184.058 14.5657 184.058 13.5641 184.058 12.5732C184.058 11.5823 184.058 10.5807 184.621 10.5807H186.642V7.01052C186.642 6.44531 187.81 6.44531 188.954 6.44531C190.097 6.44531 191.266 6.44531 191.266 7.01052V10.5807H194.144C194.735 10.5807 194.735 11.568 194.735 12.5732C194.735 13.5784 194.735 14.5657 194.144 14.5657H191.266V19.3879C191.266 20.0891 191.556 20.7616 192.423 20.7616C192.986 20.7616 193.663 20.5827 194.28 20.225C194.348 20.1821 194.416 20.1714 194.488 20.1714C194.9 20.1714 195.205 20.8582 195.491 21.6702C195.685 22.1782 195.932 22.908 195.932 23.4016C195.932 23.6342 195.878 23.8273 195.724 23.9096C194.513 24.5965 193.233 24.8576 191.649 24.8576C188.262 24.8576 186.638 22.8794 186.638 19.3915L186.642 19.3879Z" fill="#080A52"></path>
    <path d="M197.968 24.138V4.41287C197.968 3.84766 199.126 3.84766 200.294 3.84766C201.463 3.84766 202.62 3.84766 202.62 4.41287V12.2435C203.434 11.1024 204.656 10.2653 206.294 10.2653C209.197 10.2653 211 12.4618 211 16.1321V24.138C211 24.7032 209.842 24.7032 208.674 24.7032C207.505 24.7032 206.348 24.7032 206.348 24.138V16.4469C206.348 15.4846 205.796 14.6475 204.67 14.6475C203.362 14.6475 202.62 15.6491 202.62 16.8332V24.1416C202.62 24.7068 201.437 24.7068 200.28 24.7068C199.122 24.7068 197.968 24.7068 197.968 24.1416V24.138Z" fill="#080A52"></path>
  </g>
  <defs>
    <clipPath id="clip0_989_4501">
      <rect width="211" height="48" fill="white"></rect>
    </clipPath>
  </defs>
</svg>
